<?xml version="1.0" standalone="no"?>
<!DOCTYPE svg PUBLIC "-//W3C//DTD SVG 20010904//EN"
 "http://www.w3.org/TR/2001/REC-SVG-20010904/DTD/svg10.dtd">
<svg version="1.0" xmlns="http://www.w3.org/2000/svg"
 width="1158.000000pt" height="1603.000000pt" viewBox="0 0 1158.000000 1603.000000"
 preserveAspectRatio="xMidYMid meet">

<g transform="translate(0.000000,1603.000000) scale(0.100000,-0.100000)"
fill="#000000" stroke="none">
<path d="M5900 15420 c-136 -11 -326 -91 -430 -180 -30 -26 -80 -62 -111 -79
-59 -33 -190 -162 -256 -251 -22 -31 -64 -96 -92 -146 -48 -85 -54 -91 -121
-127 -38 -21 -72 -42 -75 -47 -3 -6 10 -38 29 -72 62 -111 43 -106 191 -55
267 91 569 155 835 177 74 6 169 14 210 17 l75 6 -115 23 c-185 37 -323 47
-544 41 -111 -3 -232 -11 -269 -17 -38 -7 -70 -10 -72 -8 -2 2 14 41 36 87
128 273 367 455 769 586 80 26 147 49 149 51 6 5 -106 2 -209 -6z"/>
<path d="M4250 14281 c-256 -142 -616 -342 -800 -445 -391 -219 -543 -296
-599 -303 -36 -5 -41 -3 -41 15 0 51 225 296 538 585 83 77 150 142 148 144
-6 6 -127 -42 -216 -87 -133 -67 -195 -113 -237 -178 -33 -51 -37 -55 -42 -34
-6 21 -11 18 -71 -44 -92 -94 -225 -203 -344 -284 -138 -92 -468 -290 -636
-380 -242 -131 -243 -132 -324 -255 -788 -1193 -1060 -2674 -750 -4077 255
-1156 887 -2192 1804 -2959 457 -382 1029 -709 1607 -918 410 -148 858 -247
1328 -293 174 -17 769 -17 945 0 689 67 1296 241 1915 547 372 184 711 408
1059 697 159 133 516 490 646 648 169 203 359 466 444 612 60 104 -33 32 -249
-191 -415 -429 -517 -526 -600 -574 -109 -64 -391 -157 -830 -273 -156 -41
-300 -94 -482 -178 -165 -76 -254 -110 -390 -151 -101 -31 -117 -34 -127 -20
-11 15 -40 6 -36 -11 2 -8 -91 -46 -97 -40 -2 1 2 27 8 57 10 47 9 61 -10 108
-21 55 -20 74 1 53 18 -18 58 -15 58 4 0 10 8 15 23 14 12 -1 28 -2 35 -1 14
1 16 57 2 66 -19 12 -10 27 12 22 12 -4 27 -2 33 3 7 6 10 0 9 -18 -1 -15 -3
-29 -4 -32 -1 -3 -2 -8 -2 -11 1 -3 -5 -30 -13 -59 -8 -29 -12 -57 -9 -61 2
-4 0 -9 -5 -11 -5 -1 -11 -16 -13 -33 -2 -21 1 -30 12 -30 9 0 14 7 12 18 -2
9 2 17 9 17 6 0 9 7 6 15 -4 8 -2 17 4 21 6 3 8 12 5 20 -3 7 -1 16 5 20 6 3
8 12 5 19 -2 7 -2 16 2 19 6 7 9 25 15 96 3 25 7 52 11 61 4 9 5 45 3 80 -3
35 -1 74 4 87 11 28 -5 64 -25 56 -8 -3 -16 4 -20 20 -7 29 -29 33 -70 15 -20
-10 -29 -8 -53 9 -26 18 -62 27 -88 22 -5 -1 -30 -1 -56 0 -25 1 -65 -6 -89
-14 -44 -15 -46 -15 -83 11 -60 41 -118 116 -201 257 -81 137 -123 190 -192
244 -68 53 -77 74 -85 192 -6 91 -13 119 -49 210 -51 128 -100 344 -100 443 0
97 -14 141 -62 193 -54 59 -120 88 -306 134 -171 43 -270 85 -297 126 -26 40
-17 152 17 227 15 31 32 57 38 57 20 0 100 84 100 106 0 11 7 29 15 40 30 40
8 105 -31 90 -14 -5 -15 -2 -8 21 5 16 9 60 9 98 -1 130 -97 289 -190 314 -22
6 -93 11 -157 11 l-117 0 -37 -32 c-27 -24 -44 -32 -68 -30 -54 5 -84 -44
-134 -220 -16 -57 -13 -89 13 -152 6 -14 5 -17 -3 -12 -38 23 -75 -37 -49 -78
8 -11 17 -34 21 -50 7 -29 81 -105 102 -106 7 0 25 -30 40 -67 23 -53 29 -83
29 -136 0 -68 -1 -70 -39 -103 -42 -36 -118 -64 -310 -114 -135 -34 -205 -63
-255 -106 -52 -44 -71 -98 -81 -232 -10 -148 -36 -265 -94 -419 -38 -101 -46
-134 -46 -190 0 -113 -11 -136 -114 -237 -75 -75 -105 -115 -171 -226 -75
-128 -146 -218 -208 -262 -26 -19 -30 -19 -68 -4 -56 23 -127 21 -164 -5 -16
-11 -41 -24 -54 -30 -19 -8 -22 -15 -19 -41 3 -20 -3 -45 -17 -72 -31 -56 -42
-134 -21 -142 13 -5 11 -12 -14 -40 -33 -38 -38 -65 -16 -83 11 -9 20 -9 34
-2 16 9 21 7 25 -9 6 -22 28 -26 58 -10 23 13 24 4 4 -43 -8 -20 -15 -55 -15
-77 0 -22 -1 -40 -3 -40 -15 0 -209 85 -317 139 -608 305 -1263 872 -1782
1543 -136 175 -127 149 -100 278 104 511 355 984 711 1341 131 131 211 197
362 296 318 210 719 345 1090 368 51 3 123 9 159 12 l65 7 -45 7 c-25 5 -122
11 -217 15 l-171 7 -84 -41 c-46 -23 -87 -42 -91 -42 -4 0 0 14 8 31 9 17 14
33 11 36 -10 10 -241 -29 -371 -62 -413 -106 -788 -320 -1097 -626 -54 -53
-98 -95 -98 -94 0 11 487 834 545 920 320 482 712 872 1196 1193 97 64 184
122 195 129 18 12 18 12 -1 6 -44 -13 -305 -142 -346 -170 -24 -17 -81 -49
-125 -71 -139 -68 -374 -226 -562 -376 -437 -348 -839 -824 -1147 -1355 -90
-155 -235 -448 -299 -606 -26 -64 -47 -104 -50 -95 -18 47 -48 233 -58 357
-36 427 94 969 334 1398 355 635 891 1087 1529 1289 l110 35 97 102 98 102 30
-77 c27 -72 31 -77 55 -72 86 17 306 28 464 23 99 -3 231 -2 293 1 l113 7 -6
-26 c-6 -24 -3 -26 52 -38 475 -101 970 -359 1328 -692 59 -55 79 -70 59 -44
-17 22 -101 129 -187 239 -87 109 -157 202 -157 206 0 4 75 23 168 44 430 95
692 160 692 173 0 7 17 21 38 32 69 35 143 51 236 51 77 0 117 7 263 47 95 26
170 49 168 51 -6 6 -531 -28 -675 -44 -292 -33 -655 -104 -931 -184 -78 -22
-146 -40 -152 -40 -7 0 -52 27 -102 60 -277 186 -704 317 -1167 361 -166 15
-556 7 -698 -16 -210 -33 -456 -98 -603 -160 -36 -15 -37 -16 -21 -39 l15 -25
-36 12 c-31 9 -35 13 -21 23 22 16 20 21 -13 38 -75 39 -239 39 -381 0 -64
-17 -222 -76 -217 -80 1 -2 42 7 90 21 136 37 261 50 367 36 49 -6 97 -14 105
-18 11 -4 -29 -29 -122 -77 -246 -128 -427 -260 -642 -470 -347 -340 -610
-737 -771 -1165 l-29 -76 0 82 c-2 195 58 490 144 709 139 355 386 693 709
971 356 306 796 553 1186 667 285 82 487 110 805 109 400 0 606 -44 941 -201
229 -108 434 -168 764 -226 138 -25 519 -76 560 -76 17 0 20 7 20 53 0 29 7
77 15 107 25 89 29 84 -60 92 -175 17 -546 72 -734 109 l-54 11 164 82 c313
155 621 357 817 535 41 36 98 88 128 114 l54 49 100 -51 c256 -132 573 -196
844 -171 67 6 139 15 161 21 22 5 77 19 122 29 82 19 266 87 313 116 l25 15
-25 -6 c-237 -56 -396 -71 -580 -55 -402 35 -636 125 -712 274 -40 78 -34 196
16 318 51 125 195 304 351 437 l50 43 -70 -48 c-234 -160 -413 -312 -715 -609
-323 -316 -538 -494 -789 -649 -264 -163 -513 -273 -535 -237 -4 6 37 59 94
120 177 189 266 330 329 517 36 109 51 201 30 189 -43 -26 -101 -82 -123 -119
-116 -198 -334 -418 -552 -559 l-72 -46 -98 19 c-236 45 -349 54 -649 54 -367
0 -593 -28 -910 -113 -60 -17 -111 -29 -112 -27 -4 4 252 126 348 167 87 37
87 37 63 45 -64 21 -154 60 -154 68 0 13 71 -1 125 -24 26 -11 55 -20 65 -20
25 0 35 -17 13 -23 -10 -3 20 -5 67 -5 47 0 108 5 135 12 47 11 44 12 -55 8
-69 -3 -102 -1 -95 6 14 13 272 111 484 183 212 72 496 155 685 199 137 33
139 33 117 51 -61 50 -198 79 -371 79 -63 0 -121 4 -129 9 -12 8 -7 21 27 73
82 126 124 240 137 374 l7 69 -54 -95 c-186 -332 -430 -564 -763 -725 -166
-81 -280 -119 -594 -200 -311 -80 -425 -121 -619 -220 -428 -217 -848 -594
-1231 -1103 -47 -63 -87 -109 -89 -103 -7 21 28 285 54 398 80 360 240 670
459 889 176 176 242 216 775 464 453 210 588 276 785 383 321 174 616 349 889
530 113 74 121 81 145 135 13 31 49 94 78 140 29 45 51 82 50 82 -1 0 -212
-116 -467 -259z m2090 -1291 c21 -7 22 -8 5 -9 -67 -3 -234 -119 -373 -258
-76 -76 -76 -62 0 42 128 172 267 257 368 225z m-900 -5800 c16 -52 36 -131
45 -175 21 -101 30 -301 15 -320 -7 -9 -8 -15 -1 -19 19 -12 1 -32 -44 -50
-24 -11 -42 -23 -39 -27 11 -18 -45 -20 -95 -3 -65 21 -129 15 -179 -18 -26
-17 -57 -27 -104 -31 -37 -3 -82 -14 -100 -23 -41 -20 -30 -9 75 75 50 41 105
99 154 164 75 98 78 104 100 205 12 57 38 138 57 180 19 43 41 99 48 125 11
43 14 46 26 30 7 -10 26 -61 42 -113z m1270 88 c7 -24 29 -82 50 -129 22 -48
46 -124 56 -170 22 -110 24 -114 84 -195 69 -92 141 -165 223 -226 37 -27 67
-51 67 -53 0 -1 -17 6 -38 16 -20 10 -67 22 -102 25 -43 5 -82 17 -116 36 -58
32 -109 36 -175 13 -43 -16 -89 -13 -89 4 0 5 -20 19 -45 31 -36 17 -44 26
-44 48 0 15 -2 56 -4 92 -7 116 37 353 90 488 14 34 27 62 29 62 2 0 8 -19 14
-42z m-1839 -803 c-17 -20 -31 -46 -31 -58 0 -19 -19 -31 -107 -75 l-108 -52
50 46 c43 41 213 173 224 174 1 0 -11 -16 -28 -35z m2498 -103 c42 -35 78 -68
80 -74 2 -5 -43 15 -100 46 -91 48 -105 59 -110 86 -4 17 -15 40 -25 52 -26
30 59 -31 155 -110z m570 -181 c10 -7 7 -9 -12 -8 -15 1 -27 5 -27 10 0 10 22
9 39 -2z"/>
<path d="M5881 13608 c-13 -29 -25 -58 -27 -64 -3 -6 6 -15 19 -21 24 -11 24
-11 30 60 3 40 4 73 2 75 -1 1 -12 -21 -24 -50z"/>
<path d="M9980 13104 c-184 -110 -592 -312 -770 -381 -208 -82 -260 -97 -735
-212 -225 -55 -488 -119 -584 -143 l-174 -43 116 -5 c63 -3 118 -8 122 -11 3
-4 -23 -66 -59 -138 -36 -72 -66 -134 -66 -138 0 -16 576 6 970 38 371 29 390
31 390 42 0 5 8 6 17 3 21 -8 243 14 243 24 0 4 -40 10 -88 14 -49 3 -210 20
-358 37 -186 21 -332 32 -474 35 -113 2 -211 3 -217 4 -7 0 -13 5 -13 11 0 16
92 53 378 150 457 155 687 263 1017 477 159 103 439 313 415 311 -3 0 -61 -34
-130 -75z"/>
<path d="M6845 12218 c-22 -39 -57 -90 -78 -114 l-39 -44 29 0 c15 0 38 -3 49
-6 18 -5 26 3 47 48 13 29 30 77 36 106 22 106 11 108 -44 10z"/>
<path d="M7253 12283 l-213 -3 0 -53 c0 -28 -7 -81 -14 -117 -8 -36 -13 -66
-12 -67 1 -1 56 -5 123 -9 l120 -7 32 60 c41 76 89 123 171 168 55 29 60 34
35 32 -16 -1 -126 -3 -242 -4z"/>
<path d="M4515 12235 c-228 -54 -258 -58 -470 -53 -180 4 -194 3 -135 -8 207
-40 394 -41 530 -3 74 20 164 61 175 79 3 5 5 10 3 9 -2 0 -48 -11 -103 -24z"/>
<path d="M5875 12131 c211 -55 358 -121 409 -182 19 -23 26 -26 26 -13 0 30
-78 93 -173 138 -104 50 -187 72 -297 81 l-75 5 110 -29z"/>
<path d="M9950 12103 c0 -5 32 -34 72 -64 110 -83 219 -196 287 -300 34 -52
65 -94 69 -93 4 0 42 17 85 38 151 72 304 83 494 35 51 -12 95 -20 99 -16 18
18 -85 91 -178 125 -126 47 -245 38 -378 -26 -41 -21 -78 -38 -82 -40 -4 -2
-21 25 -39 60 -46 92 -153 195 -251 242 -75 36 -178 59 -178 39z"/>
<path d="M7635 12045 c-27 -22 -28 -25 -9 -25 19 0 54 28 54 43 0 13 -15 7
-45 -18z"/>
<path d="M8442 11361 c-18 -11 -2 -22 73 -51 144 -56 268 -130 382 -228 l71
-61 43 41 c123 117 262 174 466 191 124 10 132 12 118 27 -51 56 -278 75 -390
32 -66 -25 -166 -95 -203 -142 l-23 -30 -67 66 c-73 72 -185 134 -280 153 -62
13 -171 14 -190 2z"/>
<path d="M5823 3713 c10 -54 98 -248 122 -270 13 -11 50 -31 82 -43 79 -29
136 -64 168 -101 14 -18 53 -86 86 -151 l59 -118 40 0 c40 0 40 0 40 39 0 21
-11 63 -23 92 -13 30 -43 115 -67 189 -23 74 -50 151 -60 171 -23 43 -85 101
-141 130 -76 38 -229 89 -271 89 -39 0 -40 -1 -35 -27z"/>
<path d="M1360 3141 l0 -271 -170 0 -170 0 0 -100 0 -100 170 0 169 0 3 -627
3 -628 31 -65 c43 -90 120 -172 200 -211 56 -28 78 -33 162 -37 245 -12 448
115 571 355 11 23 21 46 21 51 0 10 -301 182 -318 182 -8 0 -12 -23 -12 -74 0
-94 -23 -213 -53 -279 -39 -86 -107 -137 -182 -137 -35 0 -82 37 -104 82 -21
44 -21 50 -21 716 l0 672 475 0 474 0 3 -532 c3 -530 4 -533 27 -596 52 -140
192 -303 318 -370 91 -48 197 -72 318 -72 164 0 290 42 450 149 l60 40 3 -58
3 -58 157 -72 c86 -40 163 -75 170 -78 10 -4 12 135 10 688 l-3 694 -165 0
-165 0 -5 -385 -5 -385 -33 -77 c-107 -247 -254 -359 -472 -362 -77 0 -104 3
-141 20 -85 40 -149 126 -195 264 -17 50 -19 106 -22 623 l-3 567 1885 0 1885
0 3 -502 3 -503 24 -60 c46 -115 120 -207 225 -277 136 -93 267 -123 506 -115
230 7 361 43 449 122 l41 37 0 -348 c0 -386 -6 -437 -59 -543 -41 -80 -146
-190 -235 -246 -179 -111 -473 -154 -683 -99 -80 21 -168 70 -234 132 -122
112 -132 226 -28 302 82 59 279 122 454 145 59 8 109 15 110 17 2 2 -42 66
-98 142 l-102 138 -78 -6 c-210 -15 -460 -163 -534 -314 -23 -48 -28 -70 -28
-137 0 -72 3 -86 34 -143 74 -137 231 -270 391 -331 156 -60 260 -75 495 -75
230 0 269 7 441 73 160 62 328 198 391 317 73 139 68 69 68 1059 l0 890 -160
57 c-88 31 -163 57 -167 57 -5 1 -8 -142 -8 -317 0 -181 -5 -344 -11 -378 -5
-32 -29 -97 -52 -144 -33 -68 -59 -102 -127 -170 -139 -140 -256 -185 -415
-161 -145 21 -233 87 -272 204 -16 47 -18 111 -21 615 l-3 562 816 0 815 0 0
-212 0 -213 -35 -28 c-33 -26 -35 -31 -35 -87 0 -33 4 -60 9 -60 5 0 73 25
150 55 175 69 255 90 405 105 208 22 295 1 387 -93 l49 -50 0 -73 0 -74 -47
31 c-91 57 -169 74 -343 74 -130 0 -168 -4 -233 -23 -161 -46 -287 -119 -397
-231 -136 -138 -168 -275 -100 -417 47 -96 171 -193 307 -241 73 -26 88 -28
248 -28 202 0 282 17 435 93 52 26 99 47 105 47 5 0 12 -13 15 -29 5 -27 16
-34 120 -78 63 -26 123 -51 132 -54 17 -5 18 16 18 375 0 632 -27 796 -147
901 -125 110 -382 139 -678 76 -66 -14 -126 -26 -132 -26 -10 0 -13 33 -13
130 l0 130 540 0 540 0 0 100 0 100 -4140 0 -4140 0 0 170 0 169 -122 84 c-68
46 -135 92 -150 102 l-28 17 0 -271z m7971 -1350 c219 -59 279 -129 187 -218
-93 -89 -284 -193 -426 -232 -153 -42 -351 -50 -456 -19 -21 7 -55 27 -74 45
-31 29 -34 37 -29 69 19 118 213 290 392 348 123 40 272 42 406 7z"/>
<path d="M5170 2463 c-88 -14 -280 -91 -354 -143 l-46 -31 0 61 0 60 -155 0
-155 0 2 -606 3 -607 150 -78 150 -78 6 397 c6 433 6 438 70 563 90 178 306
362 451 384 105 16 228 -54 228 -130 0 -20 -7 -52 -16 -70 -37 -78 -169 -170
-263 -182 -23 -3 -40 -9 -39 -13 9 -21 235 -269 246 -269 25 -2 126 73 194
142 163 166 164 318 3 465 -108 99 -224 143 -370 141 -44 -1 -91 -4 -105 -6z"/>
<path d="M6050 1841 l0 -629 88 -47 c48 -26 111 -61 140 -77 l52 -30 0 706 0
706 -140 0 -140 0 0 -629z"/>
</g>
</svg>
